/* XPM */
static char *_550792570667[] = {
/* columns rows colors chars-per-pixel */
"16 16 208 2 ",
"   c #78510B",
".  c #936D1B",
"X  c #936E1A",
"o  c #986F1E",
"O  c #96721C",
"+  c #8E6F23",
"@  c #906D27",
"#  c #987323",
"$  c #997B2E",
"%  c #A37F29",
"&  c #B88002",
"*  c #AE851A",
"=  c #BD8C13",
"-  c #BD8F15",
";  c #B5881A",
":  c #B4891B",
">  c #BE8B19",
",  c #BF8D18",
"<  c #BE8F19",
"1  c #BC8D1A",
"2  c #BC8E1B",
"3  c #BE8F1B",
"4  c #BB8E1E",
"5  c #BB8E1F",
"6  c #BB8F1F",
"7  c #BD8E1C",
"8  c #BD8F1C",
"9  c #BC8E1D",
"0  c #BE8F1F",
"q  c #AD8327",
"w  c #A88128",
"e  c #AD8F28",
"r  c #AD892D",
"t  c #B48921",
"y  c #B58B20",
"u  c #B48B23",
"i  c #B58B26",
"p  c #B78D24",
"a  c #BE8F20",
"s  c #BC8F23",
"d  c #B98E24",
"f  c #B38C29",
"g  c #B38C2B",
"h  c #B68C29",
"j  c #B48C2A",
"k  c #B58D2E",
"l  c #BD9020",
"z  c #BB9026",
"x  c #BF9224",
"c  c #BE9325",
"v  c #BF9326",
"b  c #BF9426",
"n  c #BF9527",
"m  c #B99028",
"M  c #B8912C",
"N  c #A88631",
"B  c #A78833",
"V  c #AE8C30",
"C  c #B39133",
"Z  c #B19037",
"A  c #BD9B39",
"S  c #BA9C3D",
"D  c #C18F19",
"F  c #C18E1D",
"G  c #C2911D",
"H  c #C1921E",
"J  c #C2931F",
"K  c #C5941E",
"L  c #C4951F",
"P  c #C09B1F",
"I  c #C19322",
"U  c #C09126",
"Y  c #C19424",
"T  c #C19425",
"R  c #C19426",
"E  c #C49627",
"W  c #C69825",
"Q  c #C89821",
"!  c #C89922",
"~  c #CA9B25",
"^  c #CD9D24",
"/  c #C1962E",
"(  c #C3992B",
")  c #C59A29",
"_  c #C4992B",
"`  c #C5992B",
"'  c #C19B2F",
"]  c #CC9F2D",
"[  c #C19C30",
"{  c #C19D35",
"}  c #C89F32",
"|  c #C89F34",
" . c #C19F38",
".. c #C69E38",
"X. c #C8A02E",
"o. c #D0A029",
"O. c #DEAE2C",
"+. c #C8A331",
"@. c #CBA132",
"#. c #CCA131",
"$. c #CCA534",
"%. c #C3A932",
"&. c #C5A43E",
"*. c #C8A73C",
"=. c #D0A635",
"-. c #D2A734",
";. c #D7A935",
":. c #D5AA37",
">. c #DAAC34",
",. c #D3A839",
"<. c #D0A83B",
"1. c #D6AE38",
"2. c #D2A93C",
"3. c #D8AD3A",
"4. c #A78D42",
"5. c #BA9A47",
"6. c #AB945B",
"7. c #B19854",
"8. c #BEA150",
"9. c #AC976C",
"0. c #B19B61",
"q. c #B19E64",
"w. c #B19C69",
"e. c #B19C6D",
"r. c #BFB06C",
"t. c #C0A541",
"y. c #C5A542",
"u. c #C5A346",
"i. c #CAA441",
"p. c #CFAC41",
"a. c #CEAB45",
"s. c #C0A148",
"d. c #C4AE4B",
"f. c #D1AB46",
"g. c #D1A749",
"h. c #D5B246",
"j. c #DCB341",
"k. c #DBB345",
"l. c #D9B247",
"z. c #C8AE50",
"x. c #CDAC57",
"c. c #CBB254",
"v. c #D4B151",
"b. c #D6B453",
"n. c #D3B456",
"m. c #DCB351",
"M. c #DAB550",
"N. c #DBB754",
"B. c #D8B656",
"V. c #DFB954",
"C. c #DEBA54",
"Z. c #D4B65E",
"A. c #D9B958",
"S. c #D8B85F",
"D. c #DEBB5E",
"F. c #E5BB47",
"G. c #E1BC56",
"H. c #E4BE5F",
"J. c #C7B06A",
"K. c #CDBC6A",
"L. c #D3BE64",
"P. c #D2B76C",
"I. c #D9BE6D",
"U. c #F5CD5A",
"Y. c #E7D255",
"T. c #DCC16D",
"R. c #D8C27D",
"E. c #E3C161",
"W. c #E3C361",
"Q. c #E3C162",
"!. c #E0C762",
"~. c #EDCA63",
"^. c #EBC967",
"/. c #E6C66A",
"(. c #E3C56E",
"). c #ECCB69",
"_. c #E8C86F",
"`. c #EBDD6F",
"'. c #F4D175",
"]. c #F5D577",
"[. c #F7D678",
"{. c #F1D67E",
"}. c #FBD978",
"|. c #FCDA79",
" X c #FFDF7B",
".X c #D3C484",
"XX c #E8D080",
"oX c #ECD28B",
"OX c #F9DA80",
"+X c #FEDE82",
"@X c #FADD88",
"#X c #ECDA99",
"$X c #EEDB9B",
"%X c #F2E794",
"&X c #FFE790",
"*X c #FDE8A5",
"=X c #FDFAA9",
"-X c #FCFEBD",
";X c #FDF2CA",
":X c #ECE7D0",
">X c #FAF1D3",
",X c #F6F1DC",
"<X c #FFFEE1",
"1X c #FDF9EE",
"2X c #FEFBEF",
"3X c #FFFBEF",
"4X c white",
"5X c None",
/* pixels */
"5X5X5X5X5X`.L.c.z.t.e 5X5X5X5X5X",
"5X5X5X%.K..XR.I.S.Q.Q.u.O 5X5X5X",
"5X5XP r.:X1X>X#X{._.'.|.v.. 5X5X",
"5XU J.,X4X3XXXT.).H.x.C.U...@ 5X",
"5X. #X<X1XC.*.Z.m.g.f.k.3.>.w 5X",
"  5.&X;XoX- s.1.j.i.<.;.X.^ z # ",
"+ B.}.*XD.: ' [ a.{ _ o.W H U w ",
"4.Q.[.@XC.* A $.<.&.z ! I 2 Y r ",
"7./.OX].M.M } ] h.&.y K 0 2 E C ",
"6.(.+X^.l.@.J 9 @.t.y H 0 2 _ S ",
"e.P. XC.:.! 0 1 D z l 2 0 D | d.",
"5X0.~.F.) g d i p t z z 2 F n.5X",
"5X9.8.O.Y N k h g h Z 0 & b.%X5X",
"5X5Xw.V = J Y Y n _ 0 2 A.=X5X5X",
"5X5X5Xq.B : ~ =.<.,.-.!.-X5X5X5X",
"5X5X5X5X5X$ o q / +.Y.5X5X5X5X5X"
};
