/* XPM */
static char *_550792649454[] = {
/* columns rows colors chars-per-pixel */
"32 32 211 2 ",
"   c #7C5610",
".  c #845E1D",
"X  c #8E630D",
"o  c #88641B",
"O  c #906A16",
"+  c #946D1A",
"@  c #966A18",
"#  c #95711C",
"$  c #947014",
"%  c #AB770F",
"&  c #A47D1F",
"*  c #A87E19",
"=  c #846623",
"-  c #906A23",
";  c #937123",
":  c #9B7521",
">  c #9A7A2A",
",  c #9D7F30",
"<  c #A37D22",
"1  c #BA870D",
"2  c #AC811B",
"3  c #BC8A14",
"4  c #B1861D",
"5  c #BC8E1D",
"6  c #B58716",
"7  c #BE901E",
"8  c #B5961A",
"9  c #9E8237",
"0  c #AB8323",
"q  c #A3812D",
"w  c #AC862C",
"e  c #AC8A2C",
"r  c #A48527",
"t  c #B58B24",
"y  c #BC8F21",
"u  c #B48E2C",
"i  c #B98F28",
"p  c #BE9121",
"a  c #BB932D",
"s  c #B99429",
"d  c #A2863C",
"f  c #A4893E",
"g  c #A98B3D",
"h  c #AF8E37",
"j  c #B28D33",
"k  c #B39333",
"l  c #BB9533",
"z  c #B69B33",
"x  c #B5943C",
"c  c #BA963C",
"v  c #B6983C",
"b  c #BD9B3A",
"n  c #BCA53C",
"m  c #C39215",
"M  c #C3931C",
"N  c #CB9B1B",
"B  c #CFA71F",
"V  c #D3A31E",
"C  c #C39423",
"Z  c #C69925",
"A  c #CA9B24",
"S  c #C59B2D",
"D  c #CB9D2A",
"F  c #C0952C",
"G  c #C19A33",
"H  c #CA9D37",
"J  c #C59D3C",
"K  c #CEA12E",
"L  c #CDA224",
"P  c #D2A425",
"I  c #D2A32B",
"U  c #C6A135",
"Y  c #CDA433",
"T  c #CCA539",
"R  c #CEA93D",
"E  c #C3A436",
"W  c #D1A534",
"Q  c #D5A935",
"!  c #D4AB3C",
"~  c #D8AD3B",
"^  c #DCAC33",
"/  c #CDB037",
"(  c #D7B13C",
")  c #DEB23E",
"_  c #DBB735",
"`  c #988347",
"'  c #9F8A54",
"]  c #A28943",
"[  c #A28D4A",
"{  c #AA8F45",
"}  c #AD9144",
"|  c #BD9C43",
" . c #B99B47",
".. c #A38E5A",
"X. c #A99251",
"o. c #A9975F",
"O. c #B49C5F",
"+. c #BDA449",
"@. c #BBA35A",
"#. c #BAA557",
"$. c #AC9662",
"%. c #B19D65",
"&. c #B49C6A",
"*. c #BAA562",
"=. c #BAA968",
"-. c #BAA97A",
";. c #C19D42",
":. c #C2A445",
">. c #CBA243",
",. c #CEAB43",
"<. c #CCA64B",
"1. c #CDAD4E",
"2. c #C5A74D",
"3. c #D3AD42",
"4. c #D3AF4D",
"5. c #D9AF40",
"6. c #DCB344",
"7. c #DCB54A",
"8. c #DEB84B",
"9. c #D8B346",
"0. c #C5AC52",
"q. c #CDAD51",
"w. c #D3AF55",
"e. c #D0AD5F",
"r. c #CEBA52",
"t. c #CDB85E",
"y. c #D9B454",
"u. c #DBBA55",
"i. c #D5B55D",
"p. c #DCBA5C",
"a. c #D6B657",
"s. c #E4B947",
"d. c #E3BD53",
"f. c #E3BC5A",
"g. c #EDBE57",
"h. c #C2AA6D",
"j. c #CCB362",
"k. c #C7B26C",
"l. c #D4B562",
"z. c #DABB66",
"x. c #D7B862",
"c. c #C5AC74",
"v. c #C7B377",
"b. c #D8BD71",
"n. c #D6C04E",
"m. c #D6C75E",
"M. c #ECC24D",
"N. c #E9C35C",
"B. c #E5C058",
"V. c #F0C755",
"C. c #EBD35A",
"Z. c #DCC66A",
"A. c #DDCF71",
"S. c #E7C463",
"D. c #EAC663",
"F. c #EDCA63",
"G. c #E4C66C",
"H. c #ECCA69",
"J. c #E8C86B",
"K. c #F0CE6D",
"L. c #ECD164",
"P. c #FCD56C",
"I. c #F6D068",
"U. c #E5C972",
"Y. c #EECE72",
"T. c #E5CA78",
"R. c #F0CF73",
"E. c #EED175",
"W. c #EDDD75",
"Q. c #EDD27B",
"!. c #E7D67B",
"~. c #F2D175",
"^. c #FFDD74",
"/. c #F2D37B",
"(. c #FAD878",
"). c #EFE169",
"_. c #CFC18B",
"`. c #DBCA9B",
"'. c #E9CE86",
"]. c #EAD488",
"[. c #F4DB87",
"{. c #EBD796",
"}. c #EFDC99",
"|. c #F3DE9C",
" X c #F3DB94",
".X c #FFE483",
"XX c #F7EA84",
"oX c #FFF782",
"OX c #FAE898",
"+X c #FCF69F",
"@X c #D0C9AF",
"#X c #E2D8AF",
"$X c #F3E1A7",
"%X c #FAE6A6",
"&X c #F3E3AC",
"*X c #FDFCA3",
"=X c #F3E5B5",
"-X c #FEEFBE",
";X c #FEFAB9",
":X c #E7E2CB",
">X c #F4E9C3",
",X c #F5ECCB",
"<X c #FFFFC4",
"1X c #FFF6D2",
"2X c #FFFBD7",
"3X c #FAF4DD",
"4X c #FAF5E3",
"5X c #FEFDE9",
"6X c #FDFCF4",
"7X c #FFFFFD",
"8X c None",
/* pixels */
"8X8X8X8X8X8X8X8X8X8X8X8X8X8X8X8X8X8X8X8X8X8X8X8X8X8X8X8X8X8X8X8X",
"8X8X8X8X8X8X8X8X8X8X8X8XW.XXZ.r.t.l.n z 8X8X8X8X8X8X8X8X8X8X8X8X",
"8X8X8X8X8X8X8X8X8X8XoXA.j.@.#.+.:.0.2.n k 2 < 8X8X8X8X8X8X8X8X8X",
"8X8X8X8X8X8X8X8XC.m.=.=.k.j.l.p.y.u.u.p.p.4.e $ 8X8X8X8X8X8X8X8X",
"8X8X8X8X8X8X/ _ +.-.@X&X&X}.].T.U.G.G.H.H.(.K.;.# # 8X8X8X8X8X8X",
"8X8X8X8X8XB 8 [ @X1X<X>X>X=X=X}.'.Q.U.H.H.H.(.(.w.# O 8X8X8X8X8X",
"8X8X8X8XI.B ` :X5X3X4X6X6X=X`.].Q.E.H.l.U.F.p.D.I.4.O ; 8X8X8X8X",
"8X8X8X8X6.o.#X2X4X6X7X7X{.U.G.F.F.L.u.e.H.| q.d.8.M.;.O 8X8X8X8X",
"8X8X8X% # _.;X,X4X7X7XG.8.B.r.j.i.g.g.y.| <.d.s.6.Q 6.w o 8X8X8X",
"8X8X8XX X.%X$X>X3X7X'.P 3.#.v.i.y.y.<.;.3.d.5.5.~ W I H # ; 8X8X",
"8X8XO = G.[.|.=X3X1XQ V  .v.s.( 5.s.x ;.s.5.! Q W D A K w + 8X8X",
"8X8X  d ^.'. X$X1X'.N 7 @.! L ~ 3.5.s.l T ~ W W D D Z M l : 8X8X",
"8X: o 2.P.Y.[.|.-Xz.m a +.B U E 3.! 6.v e ^ W Z Z C C M F q ; 8X",
"8X> = i.K.Y.Q.[.%Xz.3 u | P z } w.H k a Z I D A Z C C 7 C e : 8X",
"8Xf > S.~.K.Y./. Xy.3 5 v Y Z T ,.! R G C D Z C C C 5 5 C k > 8X",
"8X{ ] H.~.~././.(.p.M 6 g 4.L Y R R 6.k 0 L C C p p p 5 M l q 8X",
"8XX.{ K.~.~./.~.H.N.p & 1.Y S T R ,.( k t A C C y y 5 y C c q 8X",
"8X%.[ H.~././.Y.S.B.h a ^ C C S 4.R 5.k * N M M y 5 y M Z J e 8X",
"8X=.` z.(./.E.H.f.7.! Y Z C C 5 S ,.8.k 2 Z C y 5 y M 5 Z | z 8X",
"8Xc...j..X/.Y.S.u.( Q D C p y y 3 s 8.v * M 5 5 y 5 C M H 2.z 8X",
"8X8X$.@..X~.H.f.6.! D Z M y 5 M p 5 Z l 2 M 5 5 5 p C N >.0.8X8X",
"8X8Xc...U.(.N.8.5.W Z M 5 5 5 5 5 7 5 3 M 5 5 y p p C C q.r.8X8X",
"8X8X&.%.@.^.d.7.Q D j u C t 0 u Z 4 r a 7 e C 5 p C M >.Z.n.8X8X",
"8X8X8X&...y.V.! W C k g l 0 w w s w l 4 { b 5 5 p M C b.!.8X8X8X",
"8X8X8X8X-.` ) ~ D M j d i 0 j m , x M 0 } a 7 p C 3 x.OX8X8X8X8X",
"8X8X8X8Xc.%.q P D M u i t u u N u G 3 x M u S m 1 w.*X+X8X8X8X8X",
"8X8X8X8X8Xc.$., 3 M 7 M C Z Z Z Z Z S Z Z Z 5 3 x.;X+X8X8X8X8X8X",
"8X8X8X8X8X8Xc.%.9 * m Z C C a F F G Y I D C Y ].<X;X8X8X8X8X8X8X",
"8X8X8X8X8X8X8X8X*.] < 4 D I W ~ ~ 5.3.3.3.u.XX*X8X8X8X8X8X8X8X8X",
"8X8X8X8X8X8X8X8X8X@.] ; : 0 i H T T T 3.n.).W.8X8X8X8X8X8X8X8X8X",
"8X8X8X8X8X8X8X8X8X8X8X8X- . o # & y s E 8X8X8X8X8X8X8X8X8X8X8X8X",
"8X8X8X8X8X8X8X8X8X8X8X8X8X8X8X8X8X8X8X8X8X8X8X8X8X8X8X8X8X8X8X8X"
};
