/* XPM */
static char *_550792710088[] = {
/* columns rows colors chars-per-pixel */
"64 64 248 2 ",
"   c #654C14",
".  c #725513",
"X  c #685627",
"o  c #735E29",
"O  c #7A662A",
"+  c #75653A",
"@  c #594313",
"#  c #7B6E4A",
"$  c #835E1B",
"%  c #896719",
"&  c #926E15",
"*  c #936C1B",
"=  c #986D19",
"-  c #9A741C",
";  c #9D791B",
":  c #977216",
">  c #986F0E",
",  c #A77908",
"<  c #A37C1B",
"1  c #A57918",
"2  c #896C25",
"3  c #946D23",
"4  c #9C7522",
"5  c #977926",
"6  c #9B7A24",
"7  c #95752B",
"8  c #997827",
"9  c #816C35",
"0  c #87743C",
"q  c #947A34",
"w  c #957B3A",
"e  c #987A39",
"r  c #A27D23",
"t  c #A17D2B",
"y  c #A67F33",
"u  c #815F24",
"i  c #897845",
"p  c #987D43",
"a  c #877750",
"s  c #897F62",
"d  c #BA880C",
"f  c #A78119",
"g  c #BC8B15",
"h  c #B2841B",
"j  c #BC8E1D",
"k  c #B58819",
"l  c #BE901F",
"z  c #BE9016",
"x  c #AC800F",
"c  c #9C8338",
"v  c #9E802C",
"b  c #A48229",
"n  c #AC8B2B",
"m  c #A88525",
"M  c #B48D24",
"N  c #BC8F21",
"B  c #B48E2B",
"V  c #B78923",
"C  c #BE9120",
"Z  c #BC932B",
"A  c #B6972D",
"S  c #A38432",
"D  c #A2843C",
"F  c #AA8A38",
"G  c #B38F37",
"H  c #B69A34",
"J  c #B99837",
"K  c #AD913A",
"L  c #BDA43A",
"P  c #C28E19",
"I  c #C49214",
"U  c #C2931C",
"Y  c #CB9A1D",
"T  c #C7981C",
"R  c #D5A11E",
"E  c #C29422",
"W  c #C69926",
"Q  c #CA9B24",
"!  c #C2962A",
"~  c #C59B2A",
"^  c #CA9D2B",
"/  c #C49B33",
"(  c #CA9D32",
")  c #C49B39",
"_  c #C99C3B",
"`  c #D19F23",
"'  c #CDA12E",
"]  c #CBA426",
"[  c #D4A324",
"{  c #D2A42C",
"}  c #DAAB2C",
"|  c #DBB32D",
" . c #CCA332",
".. c #CCA53B",
"X. c #CEAA3D",
"o. c #C8A738",
"O. c #D1A533",
"+. c #D4A935",
"@. c #D4AB3B",
"#. c #D8AE3D",
"$. c #D7AC35",
"%. c #D7B43A",
"&. c #CCB13B",
"*. c #E8B327",
"=. c #E3B436",
"-. c #E0AE37",
";. c #E8C93D",
":. c #9B884A",
">. c #998855",
",. c #8B834D",
"<. c #A48B46",
"1. c #AC9348",
"2. c #B39443",
"3. c #B99543",
"4. c #BB9B44",
"5. c #BD9D4B",
"6. c #B49849",
"7. c #AC9757",
"8. c #B49C59",
"9. c #A48C51",
"0. c #BCA34D",
"q. c #BDA454",
"w. c #B9A55A",
"e. c #B8B15B",
"r. c #8D866C",
"t. c #A89461",
"y. c #B39C64",
"u. c #A39570",
"i. c #BCA46C",
"p. c #B7A264",
"a. c #BAA775",
"s. c #B6A96F",
"d. c #C89E45",
"f. c #C19E5A",
"g. c #CAA343",
"h. c #CEAA41",
"j. c #C6A649",
"k. c #D4AE42",
"l. c #DAAD42",
"z. c #D2AB4B",
"x. c #DDAE4A",
"c. c #CBB549",
"v. c #D6B142",
"b. c #DBB244",
"n. c #D3B24B",
"m. c #DCB54A",
"M. c #DEB84C",
"N. c #D4BD4A",
"B. c #C6A859",
"V. c #D1AC54",
"C. c #C9B259",
"Z. c #DCBA53",
"A. c #D8B757",
"S. c #E1B94B",
"D. c #E6B948",
"F. c #E3BC53",
"G. c #E2BE5A",
"H. c #EAB956",
"J. c #E4A84B",
"K. c #C6AB68",
"L. c #CBB36A",
"P. c #D7B968",
"I. c #C6AD75",
"U. c #CDB375",
"Y. c #D5BA77",
"T. c #D3AE65",
"R. c #DCC448",
"E. c #DCC45A",
"W. c #D9C65A",
"Q. c #EAC247",
"!. c #E5C25C",
"~. c #EAC45B",
"^. c #E8C754",
"/. c #F5CB57",
"(. c #F3D758",
"). c #DDC367",
"_. c #DBC177",
"`. c #DFD677",
"'. c #E4C363",
"]. c #E9C664",
"[. c #EBCA65",
"{. c #E4C66C",
"}. c #E5CB6C",
"|. c #ECCA6B",
" X c #E6C767",
".X c #F3CD66",
"XX c #EBD565",
"oX c #FBD76B",
"OX c #E5C974",
"+X c #EDCD72",
"@X c #E5CC7C",
"#X c #E7CA76",
"$X c #F1CF74",
"%X c #EDD17A",
"&X c #EBD478",
"*X c #F1D175",
"=X c #FEDC73",
"-X c #F2D37A",
";X c #F8D97A",
":X c #F8E669",
">X c #FFE17B",
",X c #F8E778",
"<X c #EEE77A",
"1X c #B1AC91",
"2X c #9C9887",
"3X c #C8BB95",
"4X c #C3BEAB",
"5X c #D4C38A",
"6X c #E5CC83",
"7X c #EBD283",
"8X c #E9D589",
"9X c #F1D685",
"0X c #F4DB8D",
"qX c #F6DA85",
"wX c #EDD995",
"eX c #EAD898",
"rX c #F2DB93",
"tX c #F3DE9C",
"yX c #FBE787",
"uX c #FFF386",
"iX c #F9E499",
"pX c #FDF898",
"aX c #EBE48D",
"sX c #CEC6AA",
"dX c #EEDEA7",
"fX c #F1DFA4",
"gX c #F6E5A8",
"hX c #FFFDAD",
"jX c #FBF7A9",
"kX c #F3E4B4",
"lX c #F2E6BB",
"zX c #F8E9BA",
"xX c #FBF7B4",
"cX c #EFE2B1",
"vX c #F4EAC4",
"bX c #F5ECCA",
"nX c #F6EBC5",
"mX c #FEF8C9",
"MX c #F6EFD3",
"NX c #F8F0D4",
"BX c #FAF3DC",
"VX c #FBF6D6",
"CX c #FAF5E2",
"ZX c #FCFAEB",
"AX c #FBF7E9",
"SX c #FDFBF2",
"DX c #FFFFFE",
"FX c None",
/* pixels */
"FXFXFXFXFXFXFXFXFXFXFXFXFXFXFXFXFXFXFXFXFXFXFXFXFXFXFXFXFXFXFXFXFXFXFXFXFXFXFXFXFXFXFXFXFXFXFXFXFXFXFXFXFXFXFXFXFXFXFXFXFXFXFXFX",
"FXFXFXFXFXFXFXFXFXFXFXFXFXFXFXFXFXFXFXFXFXFXFXFXFXFXFXFXFXFXFXFXFXFXFXFXFXFXFXFXFXFXFXFXFXFXFXFXFXFXFXFXFXFXFXFXFXFXFXFXFXFXFXFX",
"FXFXFXFXFXFXFXFXFXFXFXFXFXFXFXFXFXFXFXFXFXFXFXFXFXFXFXFXFXFXFXFXFXFXFXFXFXFXFXFXFXFXFXFXFXFXFXFXFXFXFXFXFXFXFXFXFXFXFXFXFXFXFXFX",
"FXFXFXFXFXFXFXFXFXFXFXFXFXFXFXFXFXFXFXFXFXFXFXFXFXFXFX&XC.E.E.W.C.).P.j.L FXFXFXFXFXFXFXFXFXFXFXFXFXFXFXFXFXFXFXFXFXFXFXFXFXFXFX",
"FXFXFXFXFXFXFXFXFXFXFXFXFXFXFXFXFXFXFXFXFXFXFX;XOX).<XqX@X}.XX).W.W.OXC.L o.H K H FXFXFXFXFXFXFXFXFXFXFXFXFXFXFXFXFXFXFXFXFXFXFX",
"FXFXFXFXFXFXFXFXFXFXFXFXFXFXFXFXFXFXFXFXuX&X&XuXuXuX&X).L.e.0.0.6.0.B.w.q.&.L K H A n n FXFXFXFXFXFXFXFXFXFXFXFXFXFXFXFXFXFXFXFX",
"FXFXFXFXFXFXFXFXFXFXFXFXFXFXFXFXFXFXe.,X,XuXuX`.e.:.:.<.1.6.J 6.4.J 4.j.j.j.L H H n b B n r FXFXFXFXFXFXFXFXFXFXFXFXFXFXFXFXFXFX",
"FXFXFXFXFXFXFXFXFXFXFXFXFXFXFXFXFXW.:X,X,Xe.,.>.7.y.L.}.}. X X'.'.!.!.G.G.G.E.A.Z.V.J m f b t < FXFXFXFXFXFXFXFXFXFXFXFXFXFXFXFX",
"FXFXFXFXFXFXFXFXFXFXFXFXFXFXFXj.(.:X:Xe.# ,.a.wXiXrX6X6XOXOXOX).).P.'.E.G.'.'.].|.$X$XZ.J 4 < r 6 FXFXFXFXFXFXFXFXFXFXFXFXFXFXFX",
"FXFXFXFXFXFXFXFXFXFXFXFXFXFX%.R.(.c.c s 5XxXgXdXeXeXeX6X6X6X@X#XOX}.{.{.{.{.'.].|.].|.;X;XA.n : 6 6 FXFXFXFXFXFXFXFXFXFXFXFXFXFX",
"FXFXFXFXFXFXFXFXFXFXFXFXFX&.R.;.c # 1XmXnXcXcXcXdXdXdXdXeXeX8X6X@X#X{.{.{.{.{.].].|.|.|..XqX-XJ * - 4 FXFXFXFXFXFXFXFXFXFXFXFXFX",
"FXFXFXFXFXFXFXFXFXFXFXFXA | | O r.nXmXvXvXvXbXvXvXvXcXcXdXeXeX8X7X6X@X#X{.|.|.{.{.].|.|.].|.$X;XV.; : 4 6 FXFXFXFXFXFXFXFXFXFXFX",
"FXFXFXFXFXFXFXFXFXFXFX] | ] X u.VXmXbXMXMXMXMXMXbXbXnXvXzXgXfXwX8X7X%X#X+XOX+XoX].{.].|.].].].].oXA.% * < FXFXFXFXFXFXFXFXFXFXFX",
"FXFXFXFXFXFXFXFXFXFX%.*.[ X 1XVXvXbXMXBXCXCXCXCXBXCXBXmX5XsXtX%X%X%X&X+X|.|.T.B.$X].'..XoX].!.~.G..XV.: : : FXFXFXFXFXFXFXFXFXFX",
"FXFXFXFXFXFXFXFXFX-XyX=.X 1XVXnXbXBXCXAXZXSXSXSXDXNXdX0XT.a.0X#X+X+X}.XX[.oX2.y.qX~..X!.6.G.~.F.F.S.~.V.& % 8 FXFXFXFXFXFXFXFXFX",
"FXFXFXFXFXFXFXFXg | uXi r.xXlXnXMXBXAXSXSXSXDXDXvX@X{.OX$X#X{.].}.[.[.~.XXJ.p 7X.X.XA.q 2.H.G.F.S.S.%.H.3.* = * FXFXFXFXFXFXFXFX",
"FXFXFXFXFXFXFXFXh *.r s jXdXlXnXNXCXZXSXDXDXDXdXE.'.}.}.{.}.].~.[.[.~.'.].A.V..X/.4.0 V./.F.S.m.m.b.l.$.J.G * = 7 FXFXFXFXFXFXFX",
"FXFXFXFXFXFXFXh Y 1 X wXgXdXlXnXNXCXZXSXDXDXfXl.Z.).P.!.XX^.c.d.V.A.J.H.^.H./.^.D e F./.F.S.m.D.b.#.@.+.} z.7 % 4 FXFXFXFXFXFXFX",
"FXFXFXFXFXFX1 r I   a.iXwXfXzXnXNXBXZXSXDXbX$.m.Z.A.!.R.J w.s.a._.L.V.J.H.D.l.0 F /.D.m.S.x.x.#.#.@.+.O.' $.2.* : 4 FXFXFXFXFXFX",
"FXFXFXFXFXFX* P . # uX0XtXfXkXnXMXNXBXDXSXZ.$.m.v.E.+.w 1X5X#X|.H.^.!.C.B.J.q g./.S.m.b.k.b.l.l.@.+.O. .( ` g.n > * FXFXFXFXFXFX",
"FXFXFXFXFX4 = 1 X L.qX7XwXfXgXzXmXNXNXDXwXR k.@.m.{ ,.sXyX=.$.v.l.x.D.v.2.1.F./.m.m.b.l.l.@.@.@.+.O.O.' ^ ^ ^ 3.* * D FXFXFXFXFX",
"FXFXFXFXFX3 1   9 =X+X7X0XtXfXzXzXnXBXZXOX` +...| 7 sXoXY &.v.v.n.b.b.M.D.y 4.D.b.k.#.#.@.+.+.+.O.( ^ ^ ^ W U d.e & * FXFXFXFXFX",
"FXFXFXFXFX= 1 @ B.oX#X7X0XwXgXgXkXzXBXzXk.+.{ $.f u.9XI  .@.@.@.k.m.l.l.D.-.7 h.D.#.#.+.+.+.O.O.{ ^ ^ ^ W W U W 3.- - FXFXFXFXFX",
"FXFXFXFX$ = $ o .X|.|.7X9X0XtXfXkXzXVX@XI  .{ [ q 3X| ]  ...+.@.k.l.k.#.v.D.) b #.@.@.O.O.O.' ( ^ ^ ^ ^ W E E P J 4 * 8 FXFXFXFX",
"FXFXFXFXr r   <.oX].|.+X9X0XrXtXgXgXmXP.T ^ ^ I 7.P.I  . .o.%.@.k.k.v.#.v.@.Q.S B $.+.O.O.' ' ^ ^ ^ W W E E l U ) D * - FXFXFXFX",
"FXFXFXFX8 1   d.oX].|.+X-X9X0XwXgXgXzXd.I ^ ^ j K X.E ~  .O.A ..%.h.v.b.v.b.Q.S r =.{ ' ' ' ^ Q W W W E E E l j ! 3.6 - FXFXFXFX",
"FXFXFXFX6 4 X Z..X].|.+X%X-X9X0XrXgXgXY...E ] 1 y.P.z ' | 6 :.3.5.D.o.G o.J X.5 4 -.' ' ^ ^ ^ Q W W E E E l C j U 3.8 : b FXFXFX",
"FXFXFX2.r % 9 .X].|.|.+X-X-X-X9X0X0XfX'.Q U Q x 8.E.k ] $.b K 2.B.b.o.S B A ~ Z ^ ' ^ ^ ^ Q W Q W ! E E U l C j P J e ; t FXFXFX",
"FXFXFX5.F . e oX].|.|.*X*X+X-XqXqXqXtXz.I E W g D P.E ] ~  .! n.v.X.v.v.g.L ! { [ ^ ^ ^ Q Q E W W E E E C l l j g ) K < ; FXFXFX",
"FXFXFX9.4.o <.oX].|.$X$X*X*X-X9X-XqX0XP.P E E Q : 8.#.E ] o. . ...h.X.X.@.v.b.q m [ W W Q E W E E C E C C l j C P ) 2.f r FXFXFX",
"FXFXFX9.j.O 1.=X|.|.$X$X*X*X-X-X-X$XqXP.g P N { f q '.A ~  .o.o...X.X.@.X.h.b.6 V Q W E E W E E E C C C l l j l P ) <.- b FXFXFX",
"FXFXFXB.0.9 1.=X|.$X$X$X*X-X-X-X$X$X.X{.! g W Q % J  X] ~  .] o.X.X.h.X.X.X.h.6 N Q W W E E E E E C C l l j l l U _ 6.m m FXFXFX",
"FXFXFXw.B.9 6.=X|.$X$X*X-X%X-X*X$X|.].OXg.d Q % S [.j.T  . . . ...&.h.X.o.h.h.5 j Q E E U E E E j P N N j N E l z ) 0.m m FXFXFX",
"FXFXFX7.B.i 7.=X$X$X*X*X-X%X-X$X|.[.~.[.n.Y & q Q.@./ Z A  .X. ...h.h.X.X.X.@.5 h Q E E E E U N N N E j j C C E U _ 6.m n FXFXFX",
"FXFXFXp.K.0 1.>X*X$X*X-X-X-X-X+X|.].!.S.!.; 2 D.+.' ] ~ C Z / X.X.X.h.X.X.X.k.5 h Q E E U E j E N N N j N C C E U _ 6.m n FXFXFX",
"FXFXFXK.K.w :.>X$X$X*X-X-X$X$X|.|.~.G.D.~.e Z =. .^ ~ ~ Q E C ^ n.k.X.X.X.X.k.5 h E U U E j E j N N E j C C C E T g.j.B B FXFXFX",
"FXFXFXt.i.:.i =X*X*X*X-X-X*X+X|.].G.F.m.b...+. .^ W W ! E C E j E z.c.X.o.X.c.6 h U U E C N l l j N N j E E C E U j.6.A n FXFXFX",
"FXFXFXFXK.y.+ |.;X*X-X-X-X+X|.|.!.F.S.m.@.#.O.^ W W E E E E C C j U g.n.h.X.v.5 h E E N C l C C j N j E U N E W ^ 0.K L 0.FXFXFX",
"FXFXFXFXK.L.+ C.>X-X-X-X$X$X|.].G.F.m.b.#... .^ W W C C E l N E E j g o.V.v.v.5 h U C l j l l j N j C j C E E W ^ B.L H FXFXFXFX",
"FXFXFXFXI.U.i 8.yX*X-X-X$X+X].G.F.S.b.@.O.O.^ ~ E E C C j C C C l j l z Z n.A.5 h U l C C j C j N C N E C E W Q ..T.o.L FXFXFXFX",
"FXFXFXFXt.U.t.i >X;X-X-X+X|.].G.F.m.l.@.O.( ^ W E l C C j l C N C N E j g N n.c h U N E l l j j E N N P E W W ` j.q.&.0.FXFXFXFX",
"FXFXFXFXFXI.I.+ P.qX*X$X+X].~.F.m.b.#.O. .^ W W E C C j j j j C l C j E l j U B k U N j l C j N N N E E E W W ^ B.C.j.c.FXFXFXFX",
"FXFXFXFXFXI.Y.i :.yX$X$X|.].G.F.m.k.@.O.^ ^ W W C C j j l l l z j N E N l C j U E j j l j j N C j E E E W ! Q d.P.N.C.FXFXFXFXFX",
"FXFXFXFXFXa.y.i.# +X;X|.[.~.F.S.m.@...O.^ E j N U j N E j j C j j j j E g l U k l l U g N j C C E N E ! W Q ^ B.C.R.c.FXFXFXFXFX",
"FXFXFXFXFXFXI.3Xa :.yX|.].!.S.m.b.O. .( ' 6 K B J U T 1 S { 4 G U N U , 2./ 8  .g I 4 2.U N l l N j E W ~ Q d.P.W.W.FXFXFXFXFXFX",
"FXFXFXFXFXFXy._.K.# A.=X!.G.m.b.k.+. .~ Y D B.g D g.I > p $.& <.O.g Q * 7.W 3 5.[ > t.z.g j C C E E E ~ Q ! P.7X XW.FXFXFXFXFXFX",
"FXFXFXFXFXFXFXK.U.>.0 oX~.F.m.l.@.O.^ ^ Y D d., p j.I 1 e O.P 7 j.P x :.d.I g r G 9.g.d j l C C N E W W U d.5X8X).FXFXFXFXFXFXFX",
"FXFXFXFXFXFXFXa U.Y.# S oXm.b.k.O.^ ^ E T D 3.2 d.P Q < e O.Y & p *.* 8.` k R > i '.I g N C l E E W ^ Q / 6X<X`.&XFXFXFXFXFXFXFX",
"FXFXFXFXFXFXFXFXI.U.I.+ J /.k.+. . .W W U D 4.& 2.Q U 1 e O.U P 7 S e d.g Q , p 5.S h.g C C C E E W Q j Y.hXyX&XFXFXFXFXFXFXFXFX",
"FXFXFXFXFXFXFXFXFXi.I.y.o ) Q.O. .^ W E I w 5.I 2 3.[ > e @.P { 1 0 V.Y U j 0 B.[ > <.h.j C E E W Q P T.aXpXpXFXFXFXFXFXFXFXFXFX",
"FXFXFXFXFXFXFXFXFXFXi.P.y.o ~ =.^ W W C P F 3.Y 1 y @., F ( E W g 2...g Q < 1.+.g Y b 5.E E E E U U T.xXpXaXFXFXFXFXFXFXFXFXFXFX",
"FXFXFXFXFXFXFXFXFXFXFXI.U.t.O k } Q C C N U j j E E E ^ Q E E E W Q E W W ^ Q U E W Q C W W W U U q.gXhXpXpXFXFXFXFXFXFXFXFXFXFX",
"FXFXFXFXFXFXFXFXFXFXFXK.y.L.y.9 1 ` T C j l l C E E E W W W W W Q ^ ' ^ ^ W W W ~ W W W ~ Q T E _.xXjXpXpXFXFXFXFXFXFXFXFXFXFXFX",
"FXFXFXFXFXFXFXFXFXFXFXFXFXK.K.p.0 : g T C l C l E E E W Z ! Z ^ Z Z V J O.^ O.( ^ ^ ^ ~ T l ) 5XxXhXjXxXFXFXFXFXFXFXFXFXFXFXFXFX",
"FXFXFXFXFXFXFXFXFXFXFXFXFXFXw.p.K.:.2 1 U Q E E E E W ^ Z G B _ G ) M 4.+.^ k.O.' ' ^ W / P.gXxXxXhXFXFXFXFXFXFXFXFXFXFXFXFXFXFX",
"FXFXFXFXFXFXFXFXFXFXFXFXFXFXFX8.w.B.7.q - h E Q W W ^ W B / ^ ( O.O.O. .O.O.O.O.O.O...V._.pXhXhXxXFXFXFXFXFXFXFXFXFXFXFXFXFXFXFX",
"FXFXFXFXFXFXFXFXFXFXFXFXFXFXFXFXK.8.7.q.D 2 6 k ` { { ' O.{ O.O.+.@.+.@.+.#.k.k.z.V. X<X<XuXpXaXFXFXFXFXFXFXFXFXFXFXFXFXFXFXFXFX",
"FXFXFXFXFXFXFXFXFXFXFXFXFXFXFXFXFXFX6.q.6.D 7 4 4 r ! ( +.@.#.D.m.b.m.m.m.z.z.m.E.W.XX:X:XaXFXFXFXFXFXFXFXFXFXFXFXFXFXFXFXFXFXFX",
"FXFXFXFXFXFXFXFXFXFXFXFXFXFXFXFXFXFXFXFX7.<.b r 2 u * 3 r r Z J )  .) / o.o.H %.R.R.W.:XFXFXFXFXFXFXFXFXFXFXFXFXFXFXFXFXFXFXFXFX",
"FXFXFXFXFXFXFXFXFXFXFXFXFXFXFXFXFXFXFXFXFXFXFX6 7 3 3 % $ = = * - k h M Q ] L &.%.R.FXFXFXFXFXFXFXFXFXFXFXFXFXFXFXFXFXFXFXFXFXFX",
"FXFXFXFXFXFXFXFXFXFXFXFXFXFXFXFXFXFXFXFXFXFXFXFXFXFX3 3 3 - - 4 r V M Z Z ] FXFXFXFXFXFXFXFXFXFXFXFXFXFXFXFXFXFXFXFXFXFXFXFXFXFX",
"FXFXFXFXFXFXFXFXFXFXFXFXFXFXFXFXFXFXFXFXFXFXFXFXFXFXFXFXFXFXFXFXFXFXFXFXFXFXFXFXFXFXFXFXFXFXFXFXFXFXFXFXFXFXFXFXFXFXFXFXFXFXFXFX",
"FXFXFXFXFXFXFXFXFXFXFXFXFXFXFXFXFXFXFXFXFXFXFXFXFXFXFXFXFXFXFXFXFXFXFXFXFXFXFXFXFXFXFXFXFXFXFXFXFXFXFXFXFXFXFXFXFXFXFXFXFXFXFXFX",
"FXFXFXFXFXFXFXFXFXFXFXFXFXFXFXFXFXFXFXFXFXFXFXFXFXFXFXFXFXFXFXFXFXFXFXFXFXFXFXFXFXFXFXFXFXFXFXFXFXFXFXFXFXFXFXFXFXFXFXFXFXFXFXFX"
};
